<svg xmlns="http://www.w3.org/2000/svg" xmlns:xlink="http://www.w3.org/1999/xlink" width="156" height="129" viewBox="0 0 156 129">
  <defs>
    <path id="monster-short-a" d="M2.56047254,0.706675903 C9.92511414,2.85663843 15.4049566,3.93161969 19,3.93161969 C22.5950453,3.93161969 28.0748917,2.85663729 35.4395392,0.706672491 L35.4395408,0.706678104 C36.4998492,0.397141802 37.6103278,1.00576285 37.9198641,2.06607126 C37.9730177,2.24814776 38,2.43685983 38,2.62653631 L37.9999923,11.7763741 C37.9999923,12.5991216 37.4961406,13.3379265 36.730187,13.6383074 C30.8201247,15.9560331 24.9100623,17.114896 19,17.114896 C13.0899359,17.114896 7.17987175,15.9560324 1.26980762,13.6383053 L1.26980847,13.6383032 C0.503852965,13.3379214 9.88934683e-16,12.5991145 8.8817842e-16,11.7763648 L-2.13219192e-05,2.62656023 C-2.13219192e-05,1.52197895 0.895418725,0.626538907 2,0.626538907 C2.18967901,0.626538907 2.3783936,0.653521532 2.56047254,0.706675903 Z"/>
  </defs>
  <g fill="none" fill-rule="evenodd">
    <path fill="#38FF8D" d="M78,0 L78,0 C121.07821,-7.91333889e-15 156,34.9217895 156,78 L156,129 L0,130 L0,78 C-5.27555926e-15,34.9217895 34.9217895,7.91333889e-15 78,0 Z"/>
    <g transform="translate(14 49)">
      <circle cx="17" cy="17" r="17" fill="#FFF" opacity=".424"/>
      <circle cx="17" cy="17" r="14" fill="#0C0C0C"/>
      <circle cx="21" cy="10" r="4" fill="#FFF"/>
    </g>
    <g transform="translate(102 49)">
      <circle cx="17" cy="17" r="17" fill="#FFF" opacity=".424"/>
      <circle cx="17" cy="17" r="14" fill="#0C0C0C"/>
      <circle cx="21" cy="10" r="4" fill="#FFF"/>
    </g>
    <g transform="translate(58 90)">
      <mask id="monster-short-b" fill="#fff">
        <use xlink:href="#monster-short-a"/>
      </mask>
      <use fill="#0C0C0C" xlink:href="#monster-short-a"/>
      <rect width="7" height="10" x="10" y="10.115" fill="#FFF" mask="url(#monster-short-b)" rx="2"/>
      <rect width="7" height="10" x="20" y="10.115" fill="#FFF" mask="url(#monster-short-b)" rx="2"/>
    </g>
  </g>
</svg>
